<svg class="diagram-root" style="background: #f5f6f6" xmlns="http://www.w3.org/2000/svg" xmlns:xlink="http://www.w3.org/1999/xlink"><style>.diagram-root { font-family: "Helvetica Neue", sans-serif; font-size: 12px; } .t { overflow: visible; } .t-bg { y: 40; fill: #fff;   } .th { fill: #005aa0;   } .tht { fill: #fff; font-size: 14px;  } .tf { fill: #323c46; overflow: visible; } .tf.pk { fill: #005aa0; font-weight: bold; } .tf.fk { font-weight: bold; } .ty { fill: #adb1b5; font-weight: normal; text-anchor: end; } .r { fill: transparent; stroke: #c3c3c3; stroke-width: 1; } .l { stroke: 1; } .i { fill: #c2c7ce; stroke: #c2c7ce; } .i.ix { fill: #afb3b6; stroke: #000; } .fa { fill: transparent; overflow: visible; } .fa .bg.hover { fill: #f7f7f7; } .c { cy: 12; r: 4; stroke: #d2d2dc; fill: #d2d2dc; } .hr { fill: transparent; stroke: #323c46; stroke-opacity: 0.035; stroke-width: 13; } .dc { stroke: #fa5a3c; fill: #fa5a3c; } .x { stroke: white; stroke-width: 1; } .hl .th { fill: #1b9bff; } .hl .tht {  } .fhl .bg { fill: #e7f4ff; } .fhls .bg {  } .r.hl { stroke: #1b9bff; } .dim { opacity: 0.25; }</style><g class="drawing-wrapper" transform="translate(-206, -19) scale(1,1)"><g class="rs"><path d="M 399.81 441 m -1, 0 a 1,1 0 1,0 2,0 a 1,1 0 1,0 -2,0 M 399.81 441 m -0.5, 0 a 0.5,0.5 0 1,0 1,0 a 0.5,0.5 0 1,0 -1,0  M399.81 441 L399.81 441 411.81 441 M 399.81 447 m -1, 0 a 1,1 0 1,0 2,0 a 1,1 0 1,0 -2,0 M 399.81 447 m -0.5, 0 a 0.5,0.5 0 1,0 1,0 a 0.5,0.5 0 1,0 -1,0  M399.81 447 L399.81 447 406.81 441 399.81 435 M 399.81 435 m -1, 0 a 1,1 0 1,0 2,0 a 1,1 0 1,0 -2,0 M 399.81 435 m -0.5, 0 a 0.5,0.5 0 1,0 1,0 a 0.5,0.5 0 1,0 -1,0  M411.81 441 Q 427.61 441, 443.41 298.5 T 475 156 M 487 156 m -1, 0 a 1,1 0 1,0 2,0 a 1,1 0 1,0 -2,0 M 487 156 m -0.5, 0 a 0.5,0.5 0 1,0 1,0 a 0.5,0.5 0 1,0 -1,0  M487 156 L487 156 475 156 M481 162 L481 162 481 150" id="h2587734699" class="r"></path><path d="M 794 433 m -1, 0 a 1,1 0 1,0 2,0 a 1,1 0 1,0 -2,0 M 794 433 m -0.5, 0 a 0.5,0.5 0 1,0 1,0 a 0.5,0.5 0 1,0 -1,0  M794 433 L794 433 782 433 M 794 439 m -1, 0 a 1,1 0 1,0 2,0 a 1,1 0 1,0 -2,0 M 794 439 m -0.5, 0 a 0.5,0.5 0 1,0 1,0 a 0.5,0.5 0 1,0 -1,0  M794 439 L794 439 787 433 794 427 M 794 427 m -1, 0 a 1,1 0 1,0 2,0 a 1,1 0 1,0 -2,0 M 794 427 m -0.5, 0 a 0.5,0.5 0 1,0 1,0 a 0.5,0.5 0 1,0 -1,0  M782 433 Q 759.71 433, 737.42 269.5 T 692.83 106 M 680.83 106 m -1, 0 a 1,1 0 1,0 2,0 a 1,1 0 1,0 -2,0 M 680.83 106 m -0.5, 0 a 0.5,0.5 0 1,0 1,0 a 0.5,0.5 0 1,0 -1,0  M680.83 106 L680.83 106 692.83 106 M686.83 112 L686.83 112 686.83 100" id="h2899272747" class="r"></path><path d="M 794 508 m -1, 0 a 1,1 0 1,0 2,0 a 1,1 0 1,0 -2,0 M 794 508 m -0.5, 0 a 0.5,0.5 0 1,0 1,0 a 0.5,0.5 0 1,0 -1,0  M794 508 L794 508 782 508 M 794 514 m -1, 0 a 1,1 0 1,0 2,0 a 1,1 0 1,0 -2,0 M 794 514 m -0.5, 0 a 0.5,0.5 0 1,0 1,0 a 0.5,0.5 0 1,0 -1,0  M794 514 L794 514 787 508 794 502 M 794 502 m -1, 0 a 1,1 0 1,0 2,0 a 1,1 0 1,0 -2,0 M 794 502 m -0.5, 0 a 0.5,0.5 0 1,0 1,0 a 0.5,0.5 0 1,0 -1,0  M782 508 Q 689.46 508, 596.91 487 T 411.81 466 M 399.81 466 m -1, 0 a 1,1 0 1,0 2,0 a 1,1 0 1,0 -2,0 M 399.81 466 m -0.5, 0 a 0.5,0.5 0 1,0 1,0 a 0.5,0.5 0 1,0 -1,0  M399.81 466 L399.81 466 411.81 466 M405.81 472 L405.81 472 405.81 460" id="h3866801897" class="r"></path></g><g class="hrs"></g><g class="ts"><svg width="193.83" height="225" x="487" y="49" id="h413949273" class="t"><rect height="40" width="193.83" class="th"></rect><text x="13" y="25" class="tht">countries</text><rect height="185" width="193.83" class="t-bg"></rect><text x="13" y="61" class="tf fk">iso3Code<tspan x="180.83" class="ty">char(3)</tspan></text><text x="13" y="86" class="tf">iso2Code<tspan x="180.83" class="ty">char(2)</tspan></text><text x="13" y="111" class="tf fk">country<tspan x="180.83" class="ty">VARCHAR(60)</tspan></text><text x="13" y="136" class="tf">region<tspan x="180.83" class="ty">VARCHAR(150)?</tspan></text><text x="13" y="161" class="tf">capitalCity<tspan x="180.83" class="ty">VARCHAR(50)?</tspan></text><text x="13" y="186" class="tf">longitude<tspan x="180.83" class="ty">FLOAT?</tspan></text><text x="13" y="211" class="tf">latitude<tspan x="180.83" class="ty">FLOAT?</tspan></text></svg><svg width="171.81" height="225" x="228" y="359" id="h2200948359" class="t"><rect height="40" width="171.81" class="th"></rect><text x="13" y="25" class="tht">immigration</text><rect height="185" width="171.81" class="t-bg"></rect><text x="13" y="61" class="tf">index<tspan x="158.81" class="ty">serial?</tspan></text><text x="13" y="86" class="tf fk">country<tspan x="158.81" class="ty">VARCHAR(60)</tspan></text><text x="13" y="111" class="tf fk">year<tspan x="158.81" class="ty">int</tspan></text><text x="13" y="136" class="tf">month_str<tspan x="158.81" class="ty">VARCHAR(3)</tspan></text><text x="13" y="161" class="tf">month_int<tspan x="158.81" class="ty">VARCHAR(2)</tspan></text><text x="13" y="186" class="tf">quarter<tspan x="158.81" class="ty">VARCHAR(2)</tspan></text><text x="13" y="211" class="tf">immigration_flow<tspan x="158.81" class="ty">int</tspan></text></svg><svg width="177.16" height="225" x="794" y="351" id="h2754389180" class="t"><rect height="40" width="177.16" class="th"></rect><text x="13" y="25" class="tht">macrodata</text><rect height="185" width="177.16" class="t-bg"></rect><text x="13" y="61" class="tf">index<tspan x="164.16" class="ty">serial</tspan></text><text x="13" y="86" class="tf fk">iso3Code<tspan x="164.16" class="ty">char(3)</tspan></text><text x="13" y="111" class="tf">iso2Code<tspan x="164.16" class="ty">char(2)</tspan></text><text x="13" y="136" class="tf">country<tspan x="164.16" class="ty">VARCHAR(60)</tspan></text><text x="13" y="161" class="tf fk">year<tspan x="164.16" class="ty">INT</tspan></text><text x="13" y="186" class="tf">indicator<tspan x="164.16" class="ty">VARCHAR(150)</tspan></text><text x="13" y="211" class="tf">value<tspan x="164.16" class="ty">FLOAT</tspan></text></svg></g></g><text class="qdbd-link" x="10" y="20">www.quickdatabasediagrams.com</text></svg>